<?xml version="1.0" encoding="UTF-8"?>
<?xml-stylesheet href="styles.css" type="text/css"?>  
  <svg>
  <path id="svg_8" d="m396.92893,128.74689c2.53895,-4.56947 7.18423,-10.52195 -0.79689,-11.95797c-2.22323,-1.13426 -4.44718,-3.14131 -6.66754,-0.90549c-4.94023,1.93952 -9.22281,4.65187 -4.02663,9.72808c2.30424,3.27822 4.40003,10.43097 7.01017,11.21873c1.55782,-2.65855 3.01715,-5.37295 4.48089,-8.08335l0,0zm-10.91374,12.61689c-4.53519,-8.04445 -8.18477,-16.67467 -13.73563,-24.09582c-6.75123,-7.16373 -20.05361,-3.97037 -23.07661,5.26984c-4.01569,9.13554 4.64885,20.04308 14.45755,18.89964c7.44328,0.12389 14.92892,0.457 22.35468,-0.07367zm37.68625,0.27157c9.64584,-1.28501 15.19286,-13.35335 9.70088,-21.36643c-4.86681,-8.55137 -18.86838,-8.84949 -23.75641,-0.1594c-4.23253,7.02552 -7.90613,14.36689 -11.79009,21.58502c8.58666,0.48792 17.25409,0.37411 25.84562,-0.05919l0,0zm15.97447,10.2894c3.28832,-2.87556 16.02209,-6.26561 6.37816,-8.99655c-2.38901,-0.67375 -5.17428,-3.76459 -7.32139,-2.91876c-4.66238,5.76104 -11.83121,9.14074 -19.31612,8.78674c-1.46525,0.47867 -8.93875,-0.728 -6.91948,0.64257c5.28034,2.99227 10.4277,6.24189 15.88943,8.89782c3.82551,-2.02483 7.53827,-4.25531 11.2894,-6.41183l0,0zm-75.12705,1.62803c2.81206,-1.62803 5.62412,-3.25606 8.43617,-4.88409c-8.59554,-0.42446 -18.43238,0.80683 -24.9284,-6.06396c-1.83149,-2.03811 -3.58776,-4.37152 -6.12612,-1.80562c-3.04043,2.08174 -12.39243,4.21504 -5.1919,6.75627c6.27005,3.68102 12.496,7.45185 18.92102,10.86053c3.06159,-1.42688 5.94758,-3.21018 8.88923,-4.86312l0,0zm41.21139,18.1654c3.64411,-2.9099 12.47071,-5.68222 12.76559,-8.80481c-8.23897,-4.71185 -16.23796,-9.958 -24.85756,-13.94064c-2.96633,-1.11845 -5.37132,0.60251 -7.75901,2.09727c-7.06045,4.17378 -14.29078,8.08852 -21.12149,12.62655c8.93332,5.48997 17.97401,10.81761 27.10265,15.98051c4.6561,-2.59542 9.25201,-5.29693 13.8698,-7.95889l0,0zm36.55919,9.08269c3.78055,-2.37064 7.56111,-4.74127 11.34169,-7.11193c-0.03095,-7.94004 0.09665,-15.88339 -0.12192,-23.82066c-7.63024,4.23129 -15.15196,8.67385 -22.54673,13.29979c-0.80877,8.18934 -0.3986,16.51411 -0.22282,24.74472c3.90199,-2.28469 7.70918,-4.7283 11.54979,-7.11193zm-88.66481,-5.00235c0.38397,-6.76822 1.21166,-14.48363 -7.00126,-16.48856c-5.1865,-2.40404 -12.37544,-8.56366 -16.3711,-8.50188c-0.12449,7.62626 -0.0586,15.25393 -0.07208,22.88086c7.66132,4.75157 15.18669,9.73189 23.01336,14.21102c0.7589,-3.93124 0.2628,-8.09858 0.43108,-12.10143zm54.86261,26.20572c4.53154,-2.84321 9.06307,-5.68642 13.5946,-8.52963c-0.02098,-8.19716 0.32007,-16.4061 -0.05267,-24.59446c-4.98018,1.41933 -10.6763,5.80651 -15.92319,8.53155c-3.92879,2.28713 -7.8576,4.57428 -11.78639,6.86143c0.07748,8.75256 -0.2118,17.52111 0.28652,26.26071c4.69672,-2.72733 9.26861,-5.66467 13.88113,-8.52961l0,0zm-18.99586,-4.60076c0,-4.37679 0,-8.75358 0,-13.13035c-9.09696,-5.28342 -18.16481,-10.61691 -27.29723,-15.83958c-0.50502,8.36965 -0.21642,16.77076 -0.29258,25.15487c9.09493,5.6591 18.09562,11.47275 27.30561,16.94542c0.35838,-4.36128 0.22752,-8.75736 0.28421,-13.13036zm53.02416,17.59455c3.70738,-2.45349 7.41475,-4.90698 11.12214,-7.36047c-0.15469,-7.77871 0.3819,-15.66269 -0.39853,-23.35557c-7.70994,4.37166 -15.15081,9.3487 -22.72334,14.01559c0.18192,8.0484 -0.37353,16.18894 0.46302,24.16856c3.91134,-2.38592 7.70352,-4.96116 11.53669,-7.46811zm-88.97278,-4.36087c-0.03018,-4.07848 -0.06039,-8.15697 -0.09057,-12.23545c-7.65931,-4.76234 -15.22213,-9.684 -22.99651,-14.25909c-0.48653,7.81375 -0.20922,15.65796 -0.28239,23.48567c7.72679,5.08311 15.36665,10.30093 23.19704,15.22538c0.30002,-4.06003 0.15112,-8.14752 0.17244,-12.21651zm55.1403,26.80206c4.50044,-2.97045 9.00087,-5.94089 13.50131,-8.91133c-0.01045,-8.28272 0.15887,-16.56901 -0.06507,-24.8489c-9.1611,5.61377 -18.26091,11.33088 -27.29362,17.14641c-1.02083,7.99778 -0.35893,16.24374 -0.36043,24.32894c2.80348,1.69706 9.97147,-5.82412 14.2178,-7.71513l0,0zm-19.1917,-3.54568c-0.54421,-5.71122 2.34055,-13.75007 -4.96327,-15.96413c-7.36563,-4.63643 -14.70165,-9.32346 -22.1642,-13.80469c-1.08769,7.84092 0.04989,16.00934 -0.78565,23.94618c8.94901,6.42928 18.13188,12.57555 27.48204,18.41264c0.74992,-4.09049 0.2835,-8.42339 0.43109,-12.58999l0,0zm-31.29734,-1.50979c-10.89218,-7.22618 -21.78436,-14.45235 -32.67653,-21.67851c0.01235,-22.30098 -0.29768,-44.60731 0.10058,-66.9041c5.45428,-3.34463 11.25851,-6.08641 16.87175,-9.15503c-3.62558,-10.31466 1.60542,-22.84916 12.1183,-26.71005c8.81276,-3.59365 19.43582,-0.35064 25.05437,7.21461c4.08099,-2.08007 8.16199,-4.16014 12.24298,-6.24021c4.1029,2.09889 8.20583,4.19778 12.30873,6.29666c5.87909,-6.9307 15.95153,-10.88588 24.68018,-7.00172c10.47737,3.65995 16.18827,16.16644 12.4309,26.46491c5.65455,3.17275 11.80236,5.65206 16.98694,9.52363c0.22984,22.16889 0.00206,44.34105 -0.01879,66.5113c-21.67279,14.25421 -42.99438,29.05253 -65.01903,42.76477c-6.4044,-0.00171 -11.93232,-6.91258 -17.87515,-9.71454c-5.74546,-3.77505 -11.47641,-7.57187 -17.20526,-11.37172l0.00002,0z" fill-opacity="null" stroke-opacity="null" stroke-width="0" stroke="#000" fill="#fff"/>
</svg>